<svg xmlns="http://www.w3.org/2000/svg" viewBox="0 0 872.5 213.81"><defs><style>.cls-1{fill:#ff571d;}.cls-2{fill:#fff;}</style></defs><g id="图层_2" data-name="图层 2"><g id="图层_1-2" data-name="图层 1"><path shape-rendering="optimizeQuality" class="cls-1" d="M184,0H29.86A29.85,29.85,0,0,0,0,29.85V184a29.86,29.86,0,0,0,29.86,29.85H184A29.85,29.85,0,0,0,213.81,184V29.85A29.84,29.84,0,0,0,184,0"/><path shape-rendering="optimizeQuality" class="cls-2" d="M178.24,148.27a.77.77,0,0,1-.77.76H163.52a.74.74,0,0,1-.74-.74V142a.74.74,0,0,0-1.29-.49c-5.84,6.87-15.19,9.3-22.19,9.3h-103a.76.76,0,0,1-.76-.77V132.41a.71.71,0,0,1,.2-.51L79.42,84a.77.77,0,0,0-.57-1.28H39.05a.76.76,0,0,1-.77-.77V63.77a.76.76,0,0,1,.77-.76h70.28a.75.75,0,0,1,.76.76v3.54a.74.74,0,0,1-.28.59c-9.24,7.38-15.43,18.42-17.11,31.63a.78.78,0,0,1-.19.41L65.16,129.85a.76.76,0,0,0,.56,1.28h37.89c-.53-.9-1-1.82-1.49-2.75-.26-.54-.5-1.11-.75-1.66s-.51-1.16-.74-1.75-.42-1.08-.62-1.65c-.26-.74-.5-1.52-.72-2.29-.12-.41-.26-.81-.37-1.22-.31-1.17-.56-2.36-.78-3.57-.08-.44-.15-.89-.22-1.34-.14-.9-.26-1.82-.35-2.73,0-.41-.08-.82-.11-1.23-.11-1.33-.18-2.67-.18-4s.08-3,.21-4.41l.21-1.83c.06-.54.12-1.07.2-1.6.15-1,.33-1.89.53-2.84l.15-.65A41.85,41.85,0,0,1,112.9,71.92l.07,0a35,35,0,0,1,3-2.16,2.85,2.85,0,0,0,.26-.17c1-.62,2-1.21,3-1.76l.57-.28c1-.48,1.93-.94,2.94-1.35.32-.14.66-.25,1-.37.91-.34,1.82-.68,2.77-1,.5-.16,1-.27,1.55-.4.82-.21,1.63-.43,2.47-.58,1.14-.23,2.36-.32,3.5-.54H134a48.93,48.93,0,0,1,5.19-.29h.07c17.22,0,35.71,8.95,38,29.57a.78.78,0,0,1-.77.87H156.11a.75.75,0,0,1-.74-.64c-1.15-6.82-7.85-10.92-16.55-10.92-14.16,0-19.59,12.39-19.59,25s5.43,25,19.59,25c10.41,0,17.46-4.67,19.16-11.81a.77.77,0,0,0-.76-.93H143.6a.77.77,0,0,1-.76-.77V103.66a.76.76,0,0,1,.76-.77h33.87a.77.77,0,0,1,.77.77Z"/><path shape-rendering="optimizeQuality" class="cls-2" d="M472.54,102.12v64.95a.79.79,0,0,1-.79.79H451.86a.79.79,0,0,1-.78-.79V155.63a1,1,0,0,0-1.79-.69c-8.11,9.54-21.09,12.92-30.82,12.92H273.38a1.06,1.06,0,0,1-1.06-1.07V142.32a1,1,0,0,1,.28-.71L333.19,75a1.06,1.06,0,0,0-.78-1.77H276.86a.78.78,0,0,1-.78-.79V47A1.06,1.06,0,0,1,277.14,46h96.79a.79.79,0,0,1,.79.79v5.19a1,1,0,0,1-.39.81C361.47,63,354,78.37,351.63,96.75a.78.78,0,0,1-.2.42l-38,41.6a1.05,1.05,0,0,0,.78,1.77h53.4a.78.78,0,0,0,.68-1.17c-.48-.87-.95-1.76-1.39-2.65s-.71-1.53-1.05-2.3-.7-1.61-1-2.43-.58-1.51-.85-2.29c-.37-1-.7-2.11-1-3.18-.17-.57-.36-1.12-.51-1.7-.43-1.62-.78-3.27-1.09-4.95-.22-1.23-.35-2.51-.66-3.74a.78.78,0,0,1,0-.14c0-1.19-.18-2.31-.26-3.49-.14-1.85-.24-3.71-.24-5.6,0-2.07.11-4.11.28-6.13.09-.85.19-1.69.29-2.53s.17-1.49.29-2.23c.2-1.34.46-2.63.73-3.93.06-.3.13-.62.2-.91,3-13.33,9.91-24.79,19.89-32.84l.1-.08c1.32-1.06,2.68-2.06,4.1-3l.37-.23c1.34-.87,2.73-1.69,4.16-2.44.26-.15.53-.26.8-.4,1.32-.67,2.67-1.31,4.07-1.88.46-.18.93-.34,1.39-.51,1.26-.47,2.52-.94,3.84-1.32.7-.21,1.44-.37,2.15-.55,1.14-.29,2.26-.6,3.43-.81,1.59-.32,3.29-.44,4.88-.75h0a68.22,68.22,0,0,1,7.24-.42h.08c23.92,0,49.59,12.43,52.8,41.07a1.09,1.09,0,0,1-1.07,1.21H441.82a1.06,1.06,0,0,1-1-.9c-1.6-9.46-10.9-15.16-23-15.16-19.66,0-27.2,17.21-27.2,34.73s7.54,34.73,27.2,34.73c14.62,0,24.47-6.62,26.69-16.74a.79.79,0,0,0-.78-.94H424.18a.79.79,0,0,1-.79-.79v-21a.78.78,0,0,1,.79-.78h47.57A.78.78,0,0,1,472.54,102.12Z"/><path shape-rendering="optimizeQuality" class="cls-2" d="M843.57,51.92l-32.06,56.85a1.1,1.1,0,0,1-1.92,0L777.53,51.92a1.11,1.11,0,0,0-1-.56H749.69a1.1,1.1,0,0,0-1.1,1.1V165.29a1.11,1.11,0,0,0,1.1,1.11h23.86a1.11,1.11,0,0,0,1.1-1.11V98.42a1.11,1.11,0,0,1,2.07-.54l23.37,41.45a1.11,1.11,0,0,0,1,.56h19a1.11,1.11,0,0,0,1-.56l23.38-41.45a1.1,1.1,0,0,1,2.06.54v66.87a1.11,1.11,0,0,0,1.1,1.11H871.4a1.11,1.11,0,0,0,1.1-1.11V52.46a1.1,1.1,0,0,0-1.1-1.1H844.53A1.09,1.09,0,0,0,843.57,51.92Z"/><path shape-rendering="optimizeQuality" class="cls-2" d="M675.09,46A61,61,0,1,0,733,104,60.85,60.85,0,0,0,675.09,46Zm.78,95.18a34.5,34.5,0,1,1,30.55-30.55A34.54,34.54,0,0,1,675.87,141.2Z"/><path shape-rendering="optimizeQuality" class="cls-2" d="M608.17,151.33a71.76,71.76,0,0,1-12-22.32.5.5,0,0,0-.87-.16,34.5,34.5,0,1,1,0-43.89.5.5,0,0,0,.87-.16,71.76,71.76,0,0,1,12-22.32l.64-.77a.52.52,0,0,0,0-.72,61,61,0,1,0,0,91.83.53.53,0,0,0,0-.73C608.59,151.84,608.38,151.59,608.17,151.33Z"/><path shape-rendering="optimizeQuality" class="cls-2" d="M489.7,138.25v27.26a2.35,2.35,0,0,0,2.35,2.35h21.69a2.36,2.36,0,0,0,1.57-4.1,112,112,0,0,1-21.24-26.7A2.35,2.35,0,0,0,489.7,138.25Z"/></g></g></svg>